<mxfile host="app.diagrams.net" modified="2023-05-18T22:21:28.670Z" agent="Mozilla/5.0 (Windows NT 10.0; Win64; x64) AppleWebKit/537.36 (KHTML, like Gecko) Chrome/112.0.0.0 Safari/537.36 Edg/112.0.1722.68" etag="Y4y62NnYRMRZ71RlSaxY" version="21.3.2" type="device">
  <diagram name="Página-1" id="TE8ejI-lsOgjT5pNU6FI">
    <mxGraphModel dx="2242" dy="984" grid="1" gridSize="10" guides="1" tooltips="1" connect="1" arrows="1" fold="1" page="1" pageScale="1" pageWidth="827" pageHeight="1169" math="0" shadow="0">
      <root>
        <mxCell id="0" />
        <mxCell id="1" parent="0" />
        <mxCell id="SNILbIl9ELxcRqwJmUnG-72" style="edgeStyle=orthogonalEdgeStyle;rounded=0;orthogonalLoop=1;jettySize=auto;html=1;entryX=0.5;entryY=0;entryDx=0;entryDy=0;entryPerimeter=0;" parent="1" source="SNILbIl9ELxcRqwJmUnG-4" target="SNILbIl9ELxcRqwJmUnG-55" edge="1">
          <mxGeometry relative="1" as="geometry">
            <Array as="points">
              <mxPoint x="200" y="80" />
              <mxPoint x="500" y="80" />
            </Array>
          </mxGeometry>
        </mxCell>
        <mxCell id="RISPIyeXCwQUF-xXLIyX-15" style="edgeStyle=orthogonalEdgeStyle;rounded=0;orthogonalLoop=1;jettySize=auto;html=1;" edge="1" parent="1" source="SNILbIl9ELxcRqwJmUnG-4" target="SNILbIl9ELxcRqwJmUnG-103">
          <mxGeometry relative="1" as="geometry">
            <Array as="points">
              <mxPoint x="200" y="80" />
              <mxPoint x="870" y="80" />
              <mxPoint x="870" y="440" />
            </Array>
          </mxGeometry>
        </mxCell>
        <mxCell id="SNILbIl9ELxcRqwJmUnG-4" value="Logar-se" style="ellipse;whiteSpace=wrap;html=1;" parent="1" vertex="1">
          <mxGeometry x="140" y="180" width="120" height="70" as="geometry" />
        </mxCell>
        <mxCell id="SNILbIl9ELxcRqwJmUnG-13" value="Visitante" style="shape=umlActor;verticalLabelPosition=bottom;verticalAlign=top;html=1;outlineConnect=0;" parent="1" vertex="1">
          <mxGeometry x="40" y="380" width="60" height="120" as="geometry" />
        </mxCell>
        <mxCell id="SNILbIl9ELxcRqwJmUnG-32" value="Ver catálogo" style="ellipse;whiteSpace=wrap;html=1;" parent="1" vertex="1">
          <mxGeometry x="280" y="180" width="120" height="70" as="geometry" />
        </mxCell>
        <mxCell id="SNILbIl9ELxcRqwJmUnG-34" value="Abrir detalhamento dos itens" style="ellipse;whiteSpace=wrap;html=1;" parent="1" vertex="1">
          <mxGeometry x="274" y="280" width="126" height="90" as="geometry" />
        </mxCell>
        <mxCell id="SNILbIl9ELxcRqwJmUnG-36" value="Pesquisar produtos" style="ellipse;whiteSpace=wrap;html=1;" parent="1" vertex="1">
          <mxGeometry x="277" y="405" width="120" height="70" as="geometry" />
        </mxCell>
        <mxCell id="SNILbIl9ELxcRqwJmUnG-38" value="Entrar em contato com suporte" style="ellipse;whiteSpace=wrap;html=1;" parent="1" vertex="1">
          <mxGeometry x="10" y="610" width="120" height="70" as="geometry" />
        </mxCell>
        <mxCell id="J9sTM68ii2zqMPpD5OEh-11" style="edgeStyle=orthogonalEdgeStyle;rounded=0;orthogonalLoop=1;jettySize=auto;html=1;" parent="1" source="SNILbIl9ELxcRqwJmUnG-49" target="SNILbIl9ELxcRqwJmUnG-56" edge="1">
          <mxGeometry relative="1" as="geometry" />
        </mxCell>
        <mxCell id="SNILbIl9ELxcRqwJmUnG-49" value="Inserir produtos no carrinho" style="ellipse;whiteSpace=wrap;html=1;" parent="1" vertex="1">
          <mxGeometry x="570" y="180" width="120" height="70" as="geometry" />
        </mxCell>
        <mxCell id="SNILbIl9ELxcRqwJmUnG-65" style="edgeStyle=orthogonalEdgeStyle;rounded=0;orthogonalLoop=1;jettySize=auto;html=1;" parent="1" source="SNILbIl9ELxcRqwJmUnG-55" target="SNILbIl9ELxcRqwJmUnG-36" edge="1">
          <mxGeometry relative="1" as="geometry" />
        </mxCell>
        <mxCell id="SNILbIl9ELxcRqwJmUnG-75" style="edgeStyle=orthogonalEdgeStyle;rounded=0;orthogonalLoop=1;jettySize=auto;html=1;" parent="1" target="SNILbIl9ELxcRqwJmUnG-74" edge="1">
          <mxGeometry relative="1" as="geometry">
            <mxPoint x="500" y="540" as="sourcePoint" />
          </mxGeometry>
        </mxCell>
        <mxCell id="RISPIyeXCwQUF-xXLIyX-17" style="edgeStyle=orthogonalEdgeStyle;rounded=0;orthogonalLoop=1;jettySize=auto;html=1;" edge="1" parent="1" source="SNILbIl9ELxcRqwJmUnG-55" target="SNILbIl9ELxcRqwJmUnG-57">
          <mxGeometry relative="1" as="geometry" />
        </mxCell>
        <mxCell id="SNILbIl9ELxcRqwJmUnG-55" value="Comprador" style="shape=umlActor;verticalLabelPosition=bottom;verticalAlign=top;html=1;outlineConnect=0;" parent="1" vertex="1">
          <mxGeometry x="470" y="380" width="60" height="120" as="geometry" />
        </mxCell>
        <mxCell id="SNILbIl9ELxcRqwJmUnG-56" value="Finalizar compra" style="ellipse;whiteSpace=wrap;html=1;" parent="1" vertex="1">
          <mxGeometry x="730" y="180" width="120" height="70" as="geometry" />
        </mxCell>
        <mxCell id="SNILbIl9ELxcRqwJmUnG-57" value="Editar informações&lt;br&gt;&amp;nbsp;da conta" style="ellipse;whiteSpace=wrap;html=1;" parent="1" vertex="1">
          <mxGeometry x="730" y="407.5" width="126" height="65" as="geometry" />
        </mxCell>
        <mxCell id="SNILbIl9ELxcRqwJmUnG-58" value="Cadastrar/editar métodos de pagamento" style="ellipse;whiteSpace=wrap;html=1;" parent="1" vertex="1">
          <mxGeometry x="570" y="475" width="120" height="70" as="geometry" />
        </mxCell>
        <mxCell id="SNILbIl9ELxcRqwJmUnG-59" value="Cadastrar/editar endereços" style="ellipse;whiteSpace=wrap;html=1;" parent="1" vertex="1">
          <mxGeometry x="570" y="610" width="120" height="70" as="geometry" />
        </mxCell>
        <mxCell id="SNILbIl9ELxcRqwJmUnG-73" style="edgeStyle=orthogonalEdgeStyle;rounded=0;orthogonalLoop=1;jettySize=auto;html=1;" parent="1" source="SNILbIl9ELxcRqwJmUnG-62" target="SNILbIl9ELxcRqwJmUnG-55" edge="1">
          <mxGeometry relative="1" as="geometry">
            <Array as="points">
              <mxPoint x="70" y="40" />
              <mxPoint x="480" y="40" />
            </Array>
          </mxGeometry>
        </mxCell>
        <mxCell id="SNILbIl9ELxcRqwJmUnG-62" value="Cadastrar conta" style="ellipse;whiteSpace=wrap;html=1;" parent="1" vertex="1">
          <mxGeometry x="10" y="180" width="120" height="70" as="geometry" />
        </mxCell>
        <mxCell id="SNILbIl9ELxcRqwJmUnG-69" value="Fazer Devoluções" style="ellipse;whiteSpace=wrap;html=1;" parent="1" vertex="1">
          <mxGeometry x="310" y="610" width="120" height="70" as="geometry" />
        </mxCell>
        <mxCell id="SNILbIl9ELxcRqwJmUnG-74" value="Favoritar Produtos" style="ellipse;whiteSpace=wrap;html=1;" parent="1" vertex="1">
          <mxGeometry x="440" y="610" width="120" height="70" as="geometry" />
        </mxCell>
        <mxCell id="SNILbIl9ELxcRqwJmUnG-79" style="edgeStyle=orthogonalEdgeStyle;rounded=0;orthogonalLoop=1;jettySize=auto;html=1;" parent="1" source="SNILbIl9ELxcRqwJmUnG-76" target="SNILbIl9ELxcRqwJmUnG-78" edge="1">
          <mxGeometry relative="1" as="geometry" />
        </mxCell>
        <mxCell id="SNILbIl9ELxcRqwJmUnG-76" value="Visualizar histórico de compras" style="ellipse;whiteSpace=wrap;html=1;" parent="1" vertex="1">
          <mxGeometry x="570" y="300" width="120" height="70" as="geometry" />
        </mxCell>
        <mxCell id="SNILbIl9ELxcRqwJmUnG-80" style="edgeStyle=orthogonalEdgeStyle;rounded=0;orthogonalLoop=1;jettySize=auto;html=1;" parent="1" source="SNILbIl9ELxcRqwJmUnG-78" target="SNILbIl9ELxcRqwJmUnG-56" edge="1">
          <mxGeometry relative="1" as="geometry" />
        </mxCell>
        <mxCell id="SNILbIl9ELxcRqwJmUnG-78" value="Refazer compra" style="ellipse;whiteSpace=wrap;html=1;" parent="1" vertex="1">
          <mxGeometry x="730" y="300" width="120" height="70" as="geometry" />
        </mxCell>
        <mxCell id="J9sTM68ii2zqMPpD5OEh-16" style="edgeStyle=orthogonalEdgeStyle;rounded=0;orthogonalLoop=1;jettySize=auto;html=1;" parent="1" source="SNILbIl9ELxcRqwJmUnG-96" edge="1">
          <mxGeometry relative="1" as="geometry">
            <mxPoint x="1503" y="215" as="targetPoint" />
          </mxGeometry>
        </mxCell>
        <mxCell id="RISPIyeXCwQUF-xXLIyX-4" style="edgeStyle=orthogonalEdgeStyle;rounded=0;orthogonalLoop=1;jettySize=auto;html=1;" edge="1" parent="1" source="SNILbIl9ELxcRqwJmUnG-96" target="SNILbIl9ELxcRqwJmUnG-113">
          <mxGeometry relative="1" as="geometry" />
        </mxCell>
        <mxCell id="SNILbIl9ELxcRqwJmUnG-96" value="Inserir produtos no carrinho" style="ellipse;whiteSpace=wrap;html=1;" parent="1" vertex="1">
          <mxGeometry x="1351" y="180" width="120" height="70" as="geometry" />
        </mxCell>
        <mxCell id="SNILbIl9ELxcRqwJmUnG-101" style="edgeStyle=orthogonalEdgeStyle;rounded=0;orthogonalLoop=1;jettySize=auto;html=1;" parent="1" target="SNILbIl9ELxcRqwJmUnG-108" edge="1">
          <mxGeometry relative="1" as="geometry">
            <mxPoint x="1090" y="530" as="sourcePoint" />
          </mxGeometry>
        </mxCell>
        <mxCell id="SNILbIl9ELxcRqwJmUnG-102" style="edgeStyle=orthogonalEdgeStyle;rounded=0;orthogonalLoop=1;jettySize=auto;html=1;" parent="1" source="SNILbIl9ELxcRqwJmUnG-103" target="SNILbIl9ELxcRqwJmUnG-110" edge="1">
          <mxGeometry relative="1" as="geometry" />
        </mxCell>
        <mxCell id="RISPIyeXCwQUF-xXLIyX-3" style="edgeStyle=orthogonalEdgeStyle;rounded=0;orthogonalLoop=1;jettySize=auto;html=1;" edge="1" parent="1" source="SNILbIl9ELxcRqwJmUnG-103">
          <mxGeometry relative="1" as="geometry">
            <mxPoint x="1497" y="440" as="targetPoint" />
          </mxGeometry>
        </mxCell>
        <mxCell id="RISPIyeXCwQUF-xXLIyX-6" style="edgeStyle=orthogonalEdgeStyle;rounded=0;orthogonalLoop=1;jettySize=auto;html=1;" edge="1" parent="1" source="SNILbIl9ELxcRqwJmUnG-103" target="RISPIyeXCwQUF-xXLIyX-5">
          <mxGeometry relative="1" as="geometry" />
        </mxCell>
        <mxCell id="SNILbIl9ELxcRqwJmUnG-103" value="Vendedor&lt;br&gt;" style="shape=umlActor;verticalLabelPosition=bottom;verticalAlign=top;html=1;outlineConnect=0;" parent="1" vertex="1">
          <mxGeometry x="1060" y="380" width="60" height="120" as="geometry" />
        </mxCell>
        <mxCell id="SNILbIl9ELxcRqwJmUnG-104" value="Finalizar compra" style="ellipse;whiteSpace=wrap;html=1;" parent="1" vertex="1">
          <mxGeometry x="1503" y="190" width="120" height="70" as="geometry" />
        </mxCell>
        <mxCell id="SNILbIl9ELxcRqwJmUnG-105" value="Editar informações&lt;br&gt;da conta" style="ellipse;whiteSpace=wrap;html=1;" parent="1" vertex="1">
          <mxGeometry x="1497" y="417.5" width="126" height="65" as="geometry" />
        </mxCell>
        <mxCell id="SNILbIl9ELxcRqwJmUnG-106" value="Cadastrar/editar métodos de pagamento" style="ellipse;whiteSpace=wrap;html=1;" parent="1" vertex="1">
          <mxGeometry x="1340" y="610" width="120" height="70" as="geometry" />
        </mxCell>
        <mxCell id="SNILbIl9ELxcRqwJmUnG-107" value="Criar/editar Produtos" style="ellipse;whiteSpace=wrap;html=1;" parent="1" vertex="1">
          <mxGeometry x="1181" y="610" width="120" height="70" as="geometry" />
        </mxCell>
        <mxCell id="SNILbIl9ELxcRqwJmUnG-108" value="Checkar estoque" style="ellipse;whiteSpace=wrap;html=1;" parent="1" vertex="1">
          <mxGeometry x="1030" y="610" width="120" height="70" as="geometry" />
        </mxCell>
        <mxCell id="SNILbIl9ELxcRqwJmUnG-109" style="edgeStyle=orthogonalEdgeStyle;rounded=0;orthogonalLoop=1;jettySize=auto;html=1;" parent="1" source="SNILbIl9ELxcRqwJmUnG-110" edge="1">
          <mxGeometry relative="1" as="geometry">
            <mxPoint x="1503" y="335.0000000000002" as="targetPoint" />
          </mxGeometry>
        </mxCell>
        <mxCell id="SNILbIl9ELxcRqwJmUnG-110" value="Visualizar histórico de compras" style="ellipse;whiteSpace=wrap;html=1;" parent="1" vertex="1">
          <mxGeometry x="1351" y="300" width="120" height="70" as="geometry" />
        </mxCell>
        <mxCell id="SNILbIl9ELxcRqwJmUnG-111" style="edgeStyle=orthogonalEdgeStyle;rounded=0;orthogonalLoop=1;jettySize=auto;html=1;" parent="1" edge="1">
          <mxGeometry relative="1" as="geometry">
            <mxPoint x="1563" y="300" as="sourcePoint" />
            <mxPoint x="1563" y="250" as="targetPoint" />
          </mxGeometry>
        </mxCell>
        <mxCell id="SNILbIl9ELxcRqwJmUnG-112" value="Refazer compra" style="ellipse;whiteSpace=wrap;html=1;" parent="1" vertex="1">
          <mxGeometry x="1503" y="300" width="120" height="70" as="geometry" />
        </mxCell>
        <mxCell id="SNILbIl9ELxcRqwJmUnG-113" value="Excluir compra" style="ellipse;whiteSpace=wrap;html=1;" parent="1" vertex="1">
          <mxGeometry x="1351" y="90" width="120" height="70" as="geometry" />
        </mxCell>
        <mxCell id="J9sTM68ii2zqMPpD5OEh-4" value="" style="endArrow=classic;html=1;rounded=0;" parent="1" source="SNILbIl9ELxcRqwJmUnG-13" target="SNILbIl9ELxcRqwJmUnG-4" edge="1">
          <mxGeometry width="50" height="50" relative="1" as="geometry">
            <mxPoint x="470" y="440" as="sourcePoint" />
            <mxPoint x="520" y="390" as="targetPoint" />
          </mxGeometry>
        </mxCell>
        <mxCell id="J9sTM68ii2zqMPpD5OEh-5" value="" style="endArrow=classic;html=1;rounded=0;" parent="1" source="SNILbIl9ELxcRqwJmUnG-13" target="SNILbIl9ELxcRqwJmUnG-32" edge="1">
          <mxGeometry width="50" height="50" relative="1" as="geometry">
            <mxPoint x="110" y="352" as="sourcePoint" />
            <mxPoint x="185" y="257" as="targetPoint" />
          </mxGeometry>
        </mxCell>
        <mxCell id="J9sTM68ii2zqMPpD5OEh-6" value="" style="endArrow=classic;html=1;rounded=0;" parent="1" source="SNILbIl9ELxcRqwJmUnG-13" target="SNILbIl9ELxcRqwJmUnG-34" edge="1">
          <mxGeometry width="50" height="50" relative="1" as="geometry">
            <mxPoint x="470" y="440" as="sourcePoint" />
            <mxPoint x="520" y="390" as="targetPoint" />
          </mxGeometry>
        </mxCell>
        <mxCell id="J9sTM68ii2zqMPpD5OEh-7" value="" style="endArrow=classic;html=1;rounded=0;" parent="1" source="SNILbIl9ELxcRqwJmUnG-13" target="SNILbIl9ELxcRqwJmUnG-36" edge="1">
          <mxGeometry width="50" height="50" relative="1" as="geometry">
            <mxPoint x="110" y="389" as="sourcePoint" />
            <mxPoint x="304" y="386" as="targetPoint" />
          </mxGeometry>
        </mxCell>
        <mxCell id="J9sTM68ii2zqMPpD5OEh-8" value="" style="endArrow=classic;html=1;rounded=0;" parent="1" target="SNILbIl9ELxcRqwJmUnG-38" edge="1">
          <mxGeometry width="50" height="50" relative="1" as="geometry">
            <mxPoint x="70" y="540" as="sourcePoint" />
            <mxPoint x="250" y="456" as="targetPoint" />
          </mxGeometry>
        </mxCell>
        <mxCell id="J9sTM68ii2zqMPpD5OEh-9" value="" style="endArrow=classic;html=1;rounded=0;" parent="1" source="SNILbIl9ELxcRqwJmUnG-13" target="SNILbIl9ELxcRqwJmUnG-62" edge="1">
          <mxGeometry width="50" height="50" relative="1" as="geometry">
            <mxPoint x="540" y="450" as="sourcePoint" />
            <mxPoint x="590" y="400" as="targetPoint" />
          </mxGeometry>
        </mxCell>
        <mxCell id="J9sTM68ii2zqMPpD5OEh-10" value="" style="endArrow=classic;html=1;rounded=0;entryX=0.979;entryY=0.773;entryDx=0;entryDy=0;entryPerimeter=0;" parent="1" source="SNILbIl9ELxcRqwJmUnG-55" target="SNILbIl9ELxcRqwJmUnG-32" edge="1">
          <mxGeometry width="50" height="50" relative="1" as="geometry">
            <mxPoint x="110" y="372" as="sourcePoint" />
            <mxPoint x="309" y="250" as="targetPoint" />
          </mxGeometry>
        </mxCell>
        <mxCell id="J9sTM68ii2zqMPpD5OEh-13" value="" style="endArrow=classic;html=1;rounded=0;" parent="1" source="SNILbIl9ELxcRqwJmUnG-55" target="SNILbIl9ELxcRqwJmUnG-59" edge="1">
          <mxGeometry width="50" height="50" relative="1" as="geometry">
            <mxPoint x="480" y="408" as="sourcePoint" />
            <mxPoint x="373" y="257" as="targetPoint" />
          </mxGeometry>
        </mxCell>
        <mxCell id="J9sTM68ii2zqMPpD5OEh-14" value="" style="endArrow=classic;html=1;rounded=0;" parent="1" source="SNILbIl9ELxcRqwJmUnG-55" target="SNILbIl9ELxcRqwJmUnG-69" edge="1">
          <mxGeometry width="50" height="50" relative="1" as="geometry">
            <mxPoint x="540" y="497" as="sourcePoint" />
            <mxPoint x="619" y="622" as="targetPoint" />
          </mxGeometry>
        </mxCell>
        <mxCell id="J9sTM68ii2zqMPpD5OEh-15" value="" style="endArrow=classic;html=1;rounded=0;" parent="1" source="SNILbIl9ELxcRqwJmUnG-55" target="SNILbIl9ELxcRqwJmUnG-38" edge="1">
          <mxGeometry width="50" height="50" relative="1" as="geometry">
            <mxPoint x="480" y="497" as="sourcePoint" />
            <mxPoint x="401" y="622" as="targetPoint" />
          </mxGeometry>
        </mxCell>
        <mxCell id="RISPIyeXCwQUF-xXLIyX-1" value="" style="endArrow=classic;html=1;rounded=0;" edge="1" parent="1" source="SNILbIl9ELxcRqwJmUnG-103" target="SNILbIl9ELxcRqwJmUnG-106">
          <mxGeometry width="50" height="50" relative="1" as="geometry">
            <mxPoint x="880" y="420" as="sourcePoint" />
            <mxPoint x="930" y="370" as="targetPoint" />
          </mxGeometry>
        </mxCell>
        <mxCell id="RISPIyeXCwQUF-xXLIyX-2" value="" style="endArrow=classic;html=1;rounded=0;" edge="1" parent="1" source="SNILbIl9ELxcRqwJmUnG-103" target="SNILbIl9ELxcRqwJmUnG-107">
          <mxGeometry width="50" height="50" relative="1" as="geometry">
            <mxPoint x="1130" y="470" as="sourcePoint" />
            <mxPoint x="1370" y="629" as="targetPoint" />
          </mxGeometry>
        </mxCell>
        <mxCell id="RISPIyeXCwQUF-xXLIyX-5" value="Pesquisar produtos" style="ellipse;whiteSpace=wrap;html=1;" vertex="1" parent="1">
          <mxGeometry x="1030" y="180" width="120" height="70" as="geometry" />
        </mxCell>
        <mxCell id="RISPIyeXCwQUF-xXLIyX-8" value="" style="endArrow=classic;html=1;rounded=0;" edge="1" parent="1" source="SNILbIl9ELxcRqwJmUnG-103" target="SNILbIl9ELxcRqwJmUnG-96">
          <mxGeometry width="50" height="50" relative="1" as="geometry">
            <mxPoint x="1130" y="470" as="sourcePoint" />
            <mxPoint x="1370" y="629" as="targetPoint" />
          </mxGeometry>
        </mxCell>
        <mxCell id="RISPIyeXCwQUF-xXLIyX-9" value="Ver catálogo" style="ellipse;whiteSpace=wrap;html=1;" vertex="1" parent="1">
          <mxGeometry x="1170" y="180" width="120" height="70" as="geometry" />
        </mxCell>
        <mxCell id="RISPIyeXCwQUF-xXLIyX-11" value="" style="endArrow=classic;html=1;rounded=0;" edge="1" parent="1" source="SNILbIl9ELxcRqwJmUnG-103" target="RISPIyeXCwQUF-xXLIyX-9">
          <mxGeometry width="50" height="50" relative="1" as="geometry">
            <mxPoint x="1130" y="429" as="sourcePoint" />
            <mxPoint x="1383" y="252" as="targetPoint" />
          </mxGeometry>
        </mxCell>
        <mxCell id="RISPIyeXCwQUF-xXLIyX-12" value="Abrir detalhamento dos itens" style="ellipse;whiteSpace=wrap;html=1;" vertex="1" parent="1">
          <mxGeometry x="890" y="180" width="126" height="70" as="geometry" />
        </mxCell>
        <mxCell id="RISPIyeXCwQUF-xXLIyX-13" value="" style="endArrow=classic;html=1;rounded=0;" edge="1" parent="1" source="SNILbIl9ELxcRqwJmUnG-103" target="RISPIyeXCwQUF-xXLIyX-12">
          <mxGeometry width="50" height="50" relative="1" as="geometry">
            <mxPoint x="1130" y="402" as="sourcePoint" />
            <mxPoint x="1219" y="258" as="targetPoint" />
          </mxGeometry>
        </mxCell>
        <mxCell id="RISPIyeXCwQUF-xXLIyX-18" value="" style="endArrow=classic;html=1;rounded=0;" edge="1" parent="1" source="SNILbIl9ELxcRqwJmUnG-55" target="SNILbIl9ELxcRqwJmUnG-58">
          <mxGeometry width="50" height="50" relative="1" as="geometry">
            <mxPoint x="540" y="497" as="sourcePoint" />
            <mxPoint x="619" y="622" as="targetPoint" />
          </mxGeometry>
        </mxCell>
        <mxCell id="RISPIyeXCwQUF-xXLIyX-19" value="" style="endArrow=classic;html=1;rounded=0;" edge="1" parent="1" target="SNILbIl9ELxcRqwJmUnG-49">
          <mxGeometry width="50" height="50" relative="1" as="geometry">
            <mxPoint x="520" y="370" as="sourcePoint" />
            <mxPoint x="596" y="496" as="targetPoint" />
          </mxGeometry>
        </mxCell>
        <mxCell id="RISPIyeXCwQUF-xXLIyX-21" value="" style="endArrow=classic;html=1;rounded=0;" edge="1" parent="1" source="SNILbIl9ELxcRqwJmUnG-55" target="SNILbIl9ELxcRqwJmUnG-76">
          <mxGeometry width="50" height="50" relative="1" as="geometry">
            <mxPoint x="540" y="466" as="sourcePoint" />
            <mxPoint x="596" y="496" as="targetPoint" />
          </mxGeometry>
        </mxCell>
      </root>
    </mxGraphModel>
  </diagram>
</mxfile>
